<?xml version="1.0" encoding="UTF-8"?>
<!DOCTYPE svg PUBLIC "-//W3C//DTD SVG 1.1//EN" "http://www.w3.org/Graphics/SVG/1.1/DTD/svg11.dtd">
<!-- Creator: CorelDRAW -->
<svg xmlns="http://www.w3.org/2000/svg" xml:space="preserve" width="750px" height="749px" version="1.1" style="shape-rendering:geometricPrecision; text-rendering:geometricPrecision; image-rendering:optimizeQuality; fill-rule:evenodd; clip-rule:evenodd"
viewBox="0 0 493.02 492.34"
 xmlns:xlink="http://www.w3.org/1999/xlink"
 xmlns:xodm="http://www.corel.com/coreldraw/odm/2003">
 <defs>
  <style type="text/css">
   <![CDATA[
    .fil2 {fill:none}
    .fil1 {fill:#18BCF2;fill-rule:nonzero}
    .fil3 {fill:#4D2973;fill-rule:nonzero}
    .fil0 {fill:#F2F4F9;fill-rule:nonzero}
   ]]>
  </style>
   <clipPath id="id0">
    <path d="M0 492.34l493.02 0 0 -492.34 -493.02 0 0 492.34z"/>
   </clipPath>
 </defs>
 <g id="Layer_x0020_1">
  <metadata id="CorelCorpID_0Corel-Layer"/>
  <g>
  </g>
  <g style="clip-path:url(#id0)">
   <g id="_2123454397952">
    <path id="path1" class="fil0" d="M224.54 8.98c12.02,-12 31.63,-12 43.59,0l203.03 203.24c12.02,12.01 21.8,35.71 21.8,52.69l0 185.2 -0.01 0.73c-0.42,16.62 -14.14,30.06 -30.82,30.06l-431.59 0c-16.94,0 -30.83,-13.93 -30.83,-30.85l0 -185.2c0,-16.99 9.84,-40.69 21.8,-52.69l203.03 -203.18z"/>
    <path id="path2" class="fil1" d="M224.54 8.98c12.02,-12 31.63,-12 43.59,0l203.03 203.24c12.02,12.01 21.8,35.71 21.8,52.69l0 185.2 -0.01 0.73c-0.42,16.62 -14.14,30.06 -30.82,30.06l-431.59 0c-16.94,0 -30.83,-13.93 -30.83,-30.85l0 -185.2c0,-16.99 9.84,-40.69 21.8,-52.69l203.03 -203.18zm-150.84 237.63c-9.09,0 -16.45,7.36 -16.45,16.44l0 160.31 32.89 0 0 -160.31c0,-9.08 -7.36,-16.44 -16.44,-16.44l0 0zm65.76 0c-9.08,0 -16.44,7.36 -16.44,16.44l0 160.31 32.88 0 0 -160.31c0,-9.08 -7.36,-16.44 -16.44,-16.44l0 0zm65.77 0c-9.08,0 -16.44,7.36 -16.44,16.44l0 160.31 32.88 0 0 -160.31c0,-9.08 -7.36,-16.44 -16.44,-16.44l0 0zm120.01 0.87c-8.62,-2.86 -17.93,1.8 -20.8,10.41l-55.07 165.47 34.66 0 51.62 -155.09c2.86,-8.61 -1.8,-17.92 -10.41,-20.79l0 0zm62.3 10.41c-2.86,-8.61 -12.17,-13.27 -20.79,-10.41 -8.61,2.87 -13.28,12.18 -10.41,20.8l51.62 155.08 34.66 0 -55.08 -165.47z"/>
    <polygon id="path3" class="fil0" points="991.07,96.7 991.07,398.59 935.76,398.59 935.76,222.19 866.17,398.57 812.68,398.57 743.89,223.59 743.89,398.57 690.26,398.57 690.26,96.7 743.89,96.7 839.42,333.03 935.76,96.7 "/>
    <path id="path4" class="fil0" d="M1194.39 398.57c-1.75,-5.63 -3.02,-12.48 -3.82,-20.51 -12.21,17.3 -31.77,25.93 -58.74,25.93 -22.52,0 -42.44,-6.49 -59.72,-19.5 -16.49,-13.28 -24.75,-35.19 -24.75,-65.77l0 -124.5 53.91 0 0 113.63c0,18.37 4.3,31.03 12.87,38.02 8.44,6.85 18.16,10.26 29.16,10.26 11.8,0 22.38,-3.68 31.77,-11.06 9.52,-7.5 14.29,-20.04 14.29,-37.61l0 -113.22 54.09 0 0 166.53c0,13.67 1.34,26.29 4.03,37.82l-53.09 0 0 -0.02z"/>
    <path id="path5" class="fil0" d="M1363.15 361.16c9.12,0 16.3,-1.76 21.52,-5.32 5.22,-3.56 7.85,-8.67 7.85,-15.39 0,-9.93 -6.64,-16.51 -19.92,-19.71l-27.15 -7.44c-20.65,-5.37 -35.7,-13.07 -45.15,-23.12 -9.45,-10.05 -14.18,-22.39 -14.18,-37.02 0,-19.3 6.97,-35 20.92,-47.06 13.94,-12.07 32.78,-18.11 56.52,-18.11 20.92,0 38.41,4.79 52.49,14.39 14.08,9.59 22.65,22.83 25.75,39.72l-48.07 11.06c-0.8,-6.7 -3.82,-12 -9.04,-15.89 -5.22,-3.88 -11.74,-5.83 -19.51,-5.83 -8.18,0 -14.61,1.85 -19.29,5.53 -4.69,3.67 -7.03,8.81 -7.03,15.39 0,4.95 1.8,9.04 5.42,12.27 3.62,3.23 9.52,5.96 17.7,8.24l26.76 7.05c18.91,4.95 33.25,12.6 43.03,22.94 9.79,10.31 14.68,22.85 14.68,37.61 0,19.3 -7.38,34.73 -22.12,46.26 -14.75,11.53 -34.85,17.31 -60.34,17.31 -25.48,0 -43.61,-5.2 -58.02,-15.58 -14.4,-10.38 -22.89,-24.56 -25.44,-42.55l49.28 -8.24c0.68,7.24 3.95,12.97 9.87,17.21 5.9,4.21 13.75,6.33 23.53,6.33l-0.06 -0.05z"/>
    <path id="path6" class="fil0" d="M1479.59 124.65c0,-8.98 3.15,-16.59 9.46,-22.84 6.31,-6.22 14.02,-9.35 23.12,-9.35 9.11,0 16.83,3.13 23.12,9.35 6.31,6.23 9.46,13.86 9.46,22.84 0,8.98 -3.15,16.99 -9.46,23.22 -6.31,6.23 -14.01,9.35 -23.12,9.35 -9.1,0 -16.83,-3.12 -23.12,-9.35 -6.31,-6.23 -9.46,-13.97 -9.46,-23.22zm59.73 69.59l0 204.35 -53.91 0 0 -204.35 53.91 0z"/>
    <path id="path7" class="fil0" d="M1681.93 187.99c23.47,0 43.74,5.84 60.84,17.49 17.1,11.65 28.52,27.15 34.3,46.47l-46.06 18.5c-3.35,-10.2 -9.41,-18.38 -18.21,-24.54 -8.77,-6.17 -18.8,-9.25 -30.06,-9.25 -16.24,0 -29,5.4 -38.31,16.19 -9.33,10.79 -13.98,25.3 -13.98,43.55 0,18.25 4.73,32.62 14.18,43.14 9.46,10.53 22.16,15.79 38.11,15.79 11.52,0 21.72,-2.94 30.56,-8.86 8.86,-5.9 15.02,-13.81 18.49,-23.74l45.26 16.89c-6.58,19.71 -18.5,35.38 -35.8,46.97 -17.31,11.59 -37.2,17.38 -59.73,17.38 -31.24,0 -56.56,-9.92 -75.92,-29.76 -19.38,-19.85 -29.06,-45.79 -29.06,-77.83 0,-32.04 9.72,-58.28 29.17,-78.34 19.44,-20.04 44.84,-30.07 76.22,-30.07l0 0.02z"/>
    <path id="path8" class="fil0" d="M2096.84 330.19l-109.21 0 -23.95 68.38 -58.53 0 108.83 -301.87 56.9 0 108.6 301.89 -59.73 0 -22.94 -68.38 0.03 -0.02zm-16.49 -46.86l-38.01 -110.4 -38.21 110.4 76.22 0z"/>
    <path id="path9" class="fil0" d="M2279.87 361.16c9.13,0 16.3,-1.76 21.52,-5.32 5.22,-3.56 7.85,-8.67 7.85,-15.39 0,-9.93 -6.64,-16.51 -19.91,-19.71l-27.15 -7.44c-20.66,-5.37 -35.7,-13.07 -45.15,-23.12 -9.46,-10.05 -14.19,-22.39 -14.19,-37.02 0,-19.3 6.97,-35 20.93,-47.06 13.93,-12.07 32.78,-18.11 56.52,-18.11 20.92,0 38.41,4.79 52.49,14.39 14.07,9.59 22.64,22.83 25.75,39.72l-48.07 11.06c-0.81,-6.7 -3.83,-12 -9.05,-15.89 -5.22,-3.88 -11.73,-5.83 -19.5,-5.83 -8.18,0 -14.61,1.85 -19.3,5.53 -4.69,3.67 -7.03,8.81 -7.03,15.39 0,4.95 1.81,9.04 5.43,12.27 3.62,3.23 9.51,5.96 17.69,8.24l26.76 7.05c18.91,4.95 33.26,12.6 43.04,22.94 9.78,10.31 14.67,22.85 14.67,37.61 0,19.3 -7.38,34.73 -22.11,46.26 -14.76,11.53 -34.86,17.31 -60.34,17.31 -25.49,0 -43.61,-5.2 -58.02,-15.58 -14.41,-10.38 -22.9,-24.56 -25.44,-42.55l49.28 -8.24c0.68,7.24 3.95,12.97 9.86,17.21 5.9,4.21 13.75,6.33 23.54,6.33l-0.07 -0.05z"/>
    <path id="path10" class="fil0" d="M2470.93 361.16c9.12,0 16.29,-1.76 21.52,-5.32 5.22,-3.56 7.85,-8.67 7.85,-15.39 0,-9.93 -6.64,-16.51 -19.92,-19.71l-27.15 -7.44c-20.65,-5.37 -35.7,-13.07 -45.15,-23.12 -9.46,-10.05 -14.18,-22.39 -14.18,-37.02 0,-19.3 6.96,-35 20.92,-47.06 13.94,-12.07 32.78,-18.11 56.52,-18.11 20.92,0 38.41,4.79 52.49,14.39 14.08,9.59 22.65,22.83 25.75,39.72l-48.07 11.06c-0.8,-6.7 -3.82,-12 -9.04,-15.89 -5.22,-3.88 -11.74,-5.83 -19.51,-5.83 -8.18,0 -14.61,1.85 -19.3,5.53 -4.68,3.67 -7.03,8.81 -7.03,15.39 0,4.95 1.81,9.04 5.43,12.27 3.62,3.23 9.52,5.96 17.7,8.24l26.76 7.05c18.9,4.95 33.25,12.6 43.03,22.94 9.78,10.31 14.68,22.85 14.68,37.61 0,19.3 -7.38,34.73 -22.12,46.26 -14.75,11.53 -34.85,17.31 -60.34,17.31 -25.48,0 -43.61,-5.2 -58.02,-15.58 -14.41,-10.38 -22.89,-24.56 -25.44,-42.55l49.28 -8.24c0.68,7.24 3.95,12.97 9.87,17.21 5.9,4.21 13.75,6.33 23.53,6.33l-0.06 -0.05z"/>
    <path id="path11" class="fil0" d="M2587.38 124.65c0,-8.98 3.14,-16.59 9.45,-22.84 6.31,-6.22 14.02,-9.35 23.12,-9.35 9.11,0 16.83,3.13 23.12,9.35 6.31,6.23 9.46,13.86 9.46,22.84 0,8.98 -3.15,16.99 -9.46,23.22 -6.31,6.23 -14.01,9.35 -23.12,9.35 -9.1,0 -16.83,-3.12 -23.12,-9.35 -6.31,-6.23 -9.45,-13.97 -9.45,-23.22zm59.74 69.59l0 204.35 -53.91 0 0 -204.35 53.91 0z"/>
    <path id="path12" class="fil0" d="M2768.61 361.16c9.12,0 16.29,-1.76 21.51,-5.32 5.22,-3.56 7.86,-8.67 7.86,-15.39 0,-9.93 -6.64,-16.51 -19.92,-19.71l-27.15 -7.44c-20.65,-5.37 -35.7,-13.07 -45.15,-23.12 -9.46,-10.05 -14.18,-22.39 -14.18,-37.02 0,-19.3 6.96,-35 20.92,-47.06 13.93,-12.07 32.78,-18.11 56.52,-18.11 20.92,0 38.41,4.79 52.49,14.39 14.08,9.59 22.65,22.83 25.75,39.72l-48.07 11.06c-0.8,-6.7 -3.82,-12 -9.04,-15.89 -5.22,-3.88 -11.74,-5.83 -19.51,-5.83 -8.18,0 -14.61,1.85 -19.3,5.53 -4.68,3.67 -7.03,8.81 -7.03,15.39 0,4.95 1.81,9.04 5.43,12.27 3.62,3.23 9.52,5.96 17.7,8.24l26.75 7.05c18.91,4.95 33.26,12.6 43.04,22.94 9.78,10.31 14.68,22.85 14.68,37.61 0,19.3 -7.38,34.73 -22.12,46.26 -14.76,11.53 -34.86,17.31 -60.34,17.31 -25.49,0 -43.61,-5.2 -58.02,-15.58 -14.41,-10.38 -22.9,-24.56 -25.44,-42.55l49.28 -8.24c0.68,7.24 3.95,12.97 9.87,17.21 5.9,4.21 13.75,6.33 23.53,6.33l-0.06 -0.05z"/>
    <path id="path13" class="fil0" d="M3005.53 398.57c-13.13,3.35 -25.54,5.03 -37.2,5.03 -21.84,0 -38.78,-5.85 -50.78,-17.59 -12.01,-11.73 -18.01,-29.53 -18.01,-53.39l0 -92.12 -31.17 0 0 -46.26 31.17 0 0 -63.36 53.09 0 0 63.36 47.06 0 0 46.26 -47.06 0 0 82.25c-0.41,21.99 8.24,32.99 25.94,32.99 6.31,0 13.21,-1.22 20.71,-3.62l6.23 46.47 0.02 -0.02z"/>
    <path id="path14" class="fil0" d="M3170.24 398.57c-1.21,-6.43 -2.22,-13.4 -3.02,-20.92 -5.78,7.91 -13.92,14.28 -24.44,19.11 -10.52,4.83 -22.57,7.23 -36.11,7.23 -22.26,0 -40.2,-5.96 -53.81,-17.9 -13.6,-11.94 -20.4,-28.09 -20.4,-48.46 0,-20.37 6.59,-36.03 19.81,-47.37 13.19,-11.33 31.34,-17 54.4,-17l59.33 0 0 -6.84c0,-11.8 -3.55,-20.58 -10.66,-26.35 -7.11,-5.76 -17.04,-8.65 -29.76,-8.65 -22.53,0 -38.68,9.59 -48.47,28.75l-39.21 -22.32c17.57,-33.26 47.93,-49.88 91.11,-49.88 26.02,0 47.39,6.78 64.16,20.3 16.75,13.55 25.14,35.54 25.14,65.98l0 78.24c0,22.26 1.27,37.61 3.82,46.06l-51.89 0 0 0.02zm-3.83 -88.5l-46.85 0c-10.32,0 -18.34,2.38 -24.03,7.13 -5.69,4.77 -8.55,11.31 -8.55,19.61 0,8.3 2.98,15.02 8.94,19.71 5.96,4.7 14.39,7.05 25.24,7.05 13.27,0 24.13,-4.03 32.57,-12.07 8.45,-8.03 12.68,-20.51 12.68,-37.4l0 -4.03z"/>
    <path id="path15" class="fil0" d="M3458.05 272.87l0 125.7 -53.7 0 0 -114.05c0,-18.64 -4.22,-31.17 -12.68,-37.61 -8.59,-6.57 -18.11,-9.84 -28.57,-9.84 -12.21,0 -23,3.68 -32.37,11.06 -9.66,7.64 -14.49,20.18 -14.49,37.61l0 112.83 -53.5 0 0 -204.33 50.68 0 1.61 20.3c5.75,-8.03 14.04,-14.49 24.85,-19.29 10.79,-4.83 22.42,-7.24 34.89,-7.24 26.41,0 46.9,7.42 61.45,22.22 14.56,14.82 21.83,35.7 21.83,62.64z"/>
    <path id="path16" class="fil0" d="M3621.01 398.61c-13.07,3.32 -25.43,4.99 -37.04,4.99 -21.84,0 -38.78,-5.85 -50.78,-17.59 -12,-11.73 -18.01,-29.53 -18.01,-53.39l0 -92.12 -31.17 0 0 -46.26 31.18 0 0 -63.36 53.08 0 0 63.36 47.07 0 0 46.26 -47.07 0 0 82.25c-0.41,21.99 8.24,32.99 25.94,32.99 6.31,0 13.21,-1.22 20.72,-3.62l6.08 45.4 0 1.09z"/>
   </g>
  </g>
  <polygon class="fil2" points="0,492.34 493.02,492.34 493.02,0 0,0 "/>
  <g id="_2123454406016">
   <path class="fil3" d="M198.93 185.5c-1.78,1.81 -3.66,3.56 -5.55,5.37 -26.6,-21.22 -40.15,-39.34 -40.19,-53.75 0,-7.63 2.84,-13.28 8.05,-15.85 4.82,-2.43 10.85,-1.81 15.44,1.51l1.37 0.99c0.51,-3.97 1.57,-7.74 3.04,-11.33 -7.6,-4.38 -17.11,-4.86 -24.89,-0.99 -9.07,4.48 -14.27,13.89 -14.2,25.74 0.07,18.9 15.78,40.26 48.17,65.32l3.83 3.01 5.44 -5c0.86,-0.78 1.75,-1.54 2.57,-2.36l0.21 -0.2c1.2,-1.13 2.36,-2.26 3.52,-3.43 -2.39,-3.04 -4.65,-6.02 -6.81,-9.03z"/>
   <path class="fil3" d="M335.49 111.44c-7.77,-3.86 -17.25,-3.42 -24.88,1 1.47,3.56 2.46,7.39 3.04,11.33l1.37 -0.99c4.56,-3.32 10.62,-3.87 15.44,-1.51 5.21,2.57 8.05,8.22 8.05,15.85 -0.07,14.41 -13.53,32.49 -40.19,53.75 -1.96,-1.81 -3.77,-3.56 -5.55,-5.37 -2.09,3.01 -4.35,5.99 -6.78,8.93 1.16,1.13 2.36,2.26 3.53,3.42l0.2 0.21c0.86,0.79 1.68,1.54 2.57,2.36l5.44 5 3.84 -3.01c32.38,-25.06 48.13,-46.46 48.17,-65.32 -0.04,-11.75 -5.24,-21.16 -14.25,-25.65z"/>
   <path class="fil3" d="M308.72 128.29c-0.37,-9.24 -3.73,-17.84 -9.38,-24.07 -5.75,-6.3 -13.21,-9.76 -21.12,-9.82 -0.07,0 -0.07,0 -0.1,0 -7.13,0 -14.18,2.94 -19.38,8.01 -4.14,4.07 -9.14,11.47 -9.14,23.55 0,16.02 7.67,34.1 21.57,51.97 2.43,-3.15 4.65,-6.3 6.71,-9.52 -11.03,-14.89 -17.05,-29.61 -17.05,-42.48 0,-6.58 1.98,-11.99 5.82,-15.72 3.08,-3.04 7.29,-4.79 11.43,-4.79l0.07 0c9.04,0.07 18.73,8.73 19.31,23.31 0.86,19.31 -14.89,52.08 -51.7,82.89 -36.8,-30.81 -52.48,-63.61 -51.69,-82.89 0.62,-14.51 10.27,-23.24 19.31,-23.31l0.07 0c4.14,0 8.35,1.75 11.43,4.79 3.84,3.73 5.82,9.21 5.82,15.72 0,12.87 -6.03,27.59 -17.12,42.48 2.06,3.15 4.32,6.37 6.71,9.52 13.9,-17.87 21.57,-35.98 21.57,-51.97 0,-12.08 -5,-19.48 -9.14,-23.55 -5.03,-5.07 -12.09,-8.01 -19.21,-8.01 -0.06,0 -0.06,0 -0.1,0 -7.91,0.06 -15.37,3.52 -21.09,9.82 -5.68,6.27 -8.97,14.79 -9.38,24.07 -0.89,20.99 14.11,58.44 59.37,94.83l3.56 2.77 3.56 -2.77c45.15,-36.43 60.18,-73.84 59.29,-94.83z"/>
   <path class="fil3" d="M253.88 226.48c27.18,-0.62 50.02,-4.35 58.37,-5.86l0 -11.26c-4.52,0.89 -22.29,4.04 -45.02,5.48 -4.21,3.93 -8.7,7.87 -13.35,11.64z"/>
   <path class="fil3" d="M179.69 209.43l0 11.26c8.46,1.54 30.54,5.17 58.1,5.79 -4.66,-3.84 -9.14,-7.71 -13.29,-11.64 -22.76,-1.34 -40.09,-4.49 -44.81,-5.41z"/>
  </g>
 </g>
</svg>
